<mxfile host="app.diagrams.net" modified="2021-12-20T01:48:55.841Z" agent="5.0 (Macintosh; Intel Mac OS X 10_15_7) AppleWebKit/537.36 (KHTML, like Gecko) Chrome/96.0.4664.93 Safari/537.36 Edg/96.0.1054.53" etag="F7Jsf2lAg-N8nrfrP6YF" version="15.9.6" type="github">
  <diagram id="ZvAKp3XvdwQ_buqutIbB" name="Page-1">
    <mxGraphModel dx="946" dy="549" grid="1" gridSize="10" guides="1" tooltips="1" connect="1" arrows="1" fold="1" page="1" pageScale="1" pageWidth="827" pageHeight="1169" math="0" shadow="0">
      <root>
        <mxCell id="0" />
        <mxCell id="1" parent="0" />
        <mxCell id="hYK_bFj1lpAIACNKmPJ8-103" value="" style="dashed=0;align=center;fontSize=12;shape=rect;" parent="1" vertex="1">
          <mxGeometry x="241" y="20" width="360" height="642" as="geometry" />
        </mxCell>
        <mxCell id="hYK_bFj1lpAIACNKmPJ8-104" value="12:30" style="dashed=0;align=center;fontSize=12;shape=rect;align=right;fillColor=#000000;strokeColor=none;fontColor=#FFFFFF;spacingRight=4;spacingTop=1;fontStyle=0;fontSize=13;resizeWidth=1;" parent="hYK_bFj1lpAIACNKmPJ8-103" vertex="1">
          <mxGeometry width="358" height="24" relative="1" as="geometry" />
        </mxCell>
        <mxCell id="hYK_bFj1lpAIACNKmPJ8-105" value="" style="dashed=0;html=1;shape=mxgraph.gmdl.top_bar;fillColor=#2D3986;strokeColor=none;" parent="hYK_bFj1lpAIACNKmPJ8-104" vertex="1">
          <mxGeometry x="1" y="0.5" width="46" height="14" relative="1" as="geometry">
            <mxPoint x="-92" y="-7" as="offset" />
          </mxGeometry>
        </mxCell>
        <mxCell id="hYK_bFj1lpAIACNKmPJ8-106" value="" style="dashed=0;align=center;fontSize=12;shape=rect;strokeColor=none;fillColor=#000000;resizeWidth=1;fontSize=22;fontColor=#FFFFFF;spacingTop=-3;verticalAlign=middle;align=left;spacingLeft=72;" parent="hYK_bFj1lpAIACNKmPJ8-103" vertex="1">
          <mxGeometry width="358" height="57" relative="1" as="geometry">
            <mxPoint y="24" as="offset" />
          </mxGeometry>
        </mxCell>
        <mxCell id="hYK_bFj1lpAIACNKmPJ8-107" value="" style="dashed=0;html=1;shape=mxgraph.gmdl.preferences;strokeColor=none;fillColor=#ffffff;" parent="hYK_bFj1lpAIACNKmPJ8-106" vertex="1">
          <mxGeometry y="0.5" width="24" height="16" relative="1" as="geometry">
            <mxPoint x="16" y="-8" as="offset" />
          </mxGeometry>
        </mxCell>
        <mxCell id="hYK_bFj1lpAIACNKmPJ8-109" value="" style="dashed=0;html=1;shape=mxgraph.gmdl.search;strokeColor=#ffffff;fillColor=none;strokeWidth=2;" parent="hYK_bFj1lpAIACNKmPJ8-106" vertex="1">
          <mxGeometry x="1" y="0.5" width="16" height="16" relative="1" as="geometry">
            <mxPoint x="-65" y="-8" as="offset" />
          </mxGeometry>
        </mxCell>
        <mxCell id="hYK_bFj1lpAIACNKmPJ8-110" value="" style="dashed=0;html=1;shape=mxgraph.gmdl.settings;strokeColor=none;fillColor=#ffffff;" parent="hYK_bFj1lpAIACNKmPJ8-106" vertex="1">
          <mxGeometry x="1" y="0.5" width="5" height="16" relative="1" as="geometry">
            <mxPoint x="-24" y="-8" as="offset" />
          </mxGeometry>
        </mxCell>
        <mxCell id="hYK_bFj1lpAIACNKmPJ8-133" value="" style="dashed=0;align=center;fontSize=12;shape=rect;strokeColor=none;fillColor=#000000;resizeWidth=1;" parent="hYK_bFj1lpAIACNKmPJ8-103" vertex="1">
          <mxGeometry y="1" width="358" height="48" relative="1" as="geometry">
            <mxPoint y="-48" as="offset" />
          </mxGeometry>
        </mxCell>
        <mxCell id="hYK_bFj1lpAIACNKmPJ8-134" value="" style="dashed=0;html=1;shape=mxgraph.gmdl.back;strokeColor=#ffffff;fillColor=#000000;strokeWidth=2;" parent="hYK_bFj1lpAIACNKmPJ8-133" vertex="1">
          <mxGeometry x="0.25" y="0.5" width="14" height="14" relative="1" as="geometry">
            <mxPoint x="-7" y="-7" as="offset" />
          </mxGeometry>
        </mxCell>
        <mxCell id="hYK_bFj1lpAIACNKmPJ8-135" value="" style="shape=ellipse;strokeColor=#ffffff;fillColor=#000000;strokeWidth=2;" parent="hYK_bFj1lpAIACNKmPJ8-133" vertex="1">
          <mxGeometry x="0.5" y="0.5" width="14" height="14" relative="1" as="geometry">
            <mxPoint x="-7" y="-7" as="offset" />
          </mxGeometry>
        </mxCell>
        <mxCell id="hYK_bFj1lpAIACNKmPJ8-136" value="" style="shape=rect;strokeColor=#ffffff;fillColor=#000000;strokeWidth=2;" parent="hYK_bFj1lpAIACNKmPJ8-133" vertex="1">
          <mxGeometry x="0.75" y="0.5" width="14" height="14" relative="1" as="geometry">
            <mxPoint x="-7" y="-7" as="offset" />
          </mxGeometry>
        </mxCell>
        <mxCell id="oxgK3gGT6i_MZKTimfoy-14" value="" style="rounded=0;whiteSpace=wrap;html=1;fillColor=#000000;" vertex="1" parent="hYK_bFj1lpAIACNKmPJ8-103">
          <mxGeometry x="8" y="210" width="344" height="110" as="geometry" />
        </mxCell>
        <mxCell id="oxgK3gGT6i_MZKTimfoy-15" value="" style="rounded=0;whiteSpace=wrap;html=1;fillColor=#000000;" vertex="1" parent="hYK_bFj1lpAIACNKmPJ8-103">
          <mxGeometry x="6" y="330" width="170" height="110" as="geometry" />
        </mxCell>
        <mxCell id="oxgK3gGT6i_MZKTimfoy-16" value="" style="rounded=0;whiteSpace=wrap;html=1;fillColor=#000000;" vertex="1" parent="hYK_bFj1lpAIACNKmPJ8-103">
          <mxGeometry x="182" y="330" width="170" height="110" as="geometry" />
        </mxCell>
        <mxCell id="oxgK3gGT6i_MZKTimfoy-20" value="" style="group" vertex="1" connectable="0" parent="hYK_bFj1lpAIACNKmPJ8-103">
          <mxGeometry x="7" y="90" width="170" height="110" as="geometry" />
        </mxCell>
        <mxCell id="oxgK3gGT6i_MZKTimfoy-12" value="品牌XXX巨量花费" style="rounded=0;whiteSpace=wrap;html=1;verticalAlign=top;align=left;" vertex="1" parent="oxgK3gGT6i_MZKTimfoy-20">
          <mxGeometry width="170" height="110" as="geometry" />
        </mxCell>
        <mxCell id="oxgK3gGT6i_MZKTimfoy-17" value="" style="verticalLabelPosition=bottom;shadow=0;dashed=0;align=center;html=1;verticalAlign=top;strokeWidth=1;shape=mxgraph.mockup.graphics.lineChart;strokeColor2=#666666;strokeColor3=#008cff;strokeColor4=#dddddd;" vertex="1" parent="oxgK3gGT6i_MZKTimfoy-20">
          <mxGeometry x="5" y="30" width="160" height="70" as="geometry" />
        </mxCell>
        <mxCell id="oxgK3gGT6i_MZKTimfoy-21" value="" style="group" vertex="1" connectable="0" parent="1">
          <mxGeometry x="424" y="110" width="170" height="110" as="geometry" />
        </mxCell>
        <mxCell id="oxgK3gGT6i_MZKTimfoy-22" value="品牌XXX巨量成交" style="rounded=0;whiteSpace=wrap;html=1;verticalAlign=top;align=left;" vertex="1" parent="oxgK3gGT6i_MZKTimfoy-21">
          <mxGeometry width="170" height="110" as="geometry" />
        </mxCell>
        <mxCell id="oxgK3gGT6i_MZKTimfoy-23" value="" style="verticalLabelPosition=bottom;shadow=0;dashed=0;align=center;html=1;verticalAlign=top;strokeWidth=1;shape=mxgraph.mockup.graphics.lineChart;strokeColor2=#666666;strokeColor3=#008cff;strokeColor4=#dddddd;" vertex="1" parent="oxgK3gGT6i_MZKTimfoy-21">
          <mxGeometry x="5" y="30" width="160" height="70" as="geometry" />
        </mxCell>
      </root>
    </mxGraphModel>
  </diagram>
</mxfile>
